<svg width="25" height="24" viewBox="0 0 25 24" fill="none" xmlns="http://www.w3.org/2000/svg">
<path d="M12.8219 0C9.5654 0 9.1559 0.015 7.8764 0.072C6.5969 0.132 5.7254 0.333 4.9619 0.63C4.16104 0.931229 3.43564 1.40374 2.8364 2.0145C2.22601 2.61404 1.75356 3.33936 1.4519 4.14C1.1549 4.902 0.952399 5.775 0.893899 7.05C0.836899 8.3325 0.821899 8.7405 0.821899 12.0015C0.821899 15.2595 0.836899 15.6675 0.893899 16.947C0.953899 18.225 1.1549 19.0965 1.4519 19.86C1.7594 20.649 2.1689 21.318 2.8364 21.9855C3.5024 22.653 4.1714 23.064 4.9604 23.37C5.7254 23.667 6.5954 23.8695 7.8734 23.928C9.1544 23.985 9.5624 24 12.8219 24C16.0814 24 16.4879 23.985 17.7689 23.928C19.0454 23.868 19.9199 23.667 20.6834 23.37C21.4837 23.0686 22.2086 22.5961 22.8074 21.9855C23.4749 21.318 23.8844 20.649 24.1919 19.86C24.4874 19.0965 24.6899 18.225 24.7499 16.947C24.8069 15.6675 24.8219 15.2595 24.8219 12C24.8219 8.7405 24.8069 8.3325 24.7499 7.0515C24.6899 5.775 24.4874 4.902 24.1919 4.14C23.8903 3.33934 23.4178 2.61401 22.8074 2.0145C22.2083 1.40351 21.4829 0.930968 20.6819 0.63C19.9169 0.333 19.0439 0.1305 17.7674 0.072C16.4864 0.015 16.0799 0 12.8189 0H12.8234H12.8219ZM11.7464 2.163H12.8234C16.0274 2.163 16.4069 2.1735 17.6714 2.232C18.8414 2.2845 19.4774 2.481 19.9004 2.6445C20.4599 2.862 20.8604 3.123 21.2804 3.543C21.7004 3.963 21.9599 4.362 22.1774 4.923C22.3424 5.3445 22.5374 5.9805 22.5899 7.1505C22.6484 8.415 22.6604 8.7945 22.6604 11.997C22.6604 15.1995 22.6484 15.5805 22.5899 16.845C22.5374 18.015 22.3409 18.6495 22.1774 19.0725C21.985 19.5935 21.6779 20.0647 21.2789 20.451C20.8589 20.871 20.4599 21.1305 19.8989 21.348C19.4789 21.513 18.8429 21.708 17.6714 21.762C16.4069 21.819 16.0274 21.8325 12.8234 21.8325C9.6194 21.8325 9.2384 21.819 7.9739 21.762C6.8039 21.708 6.1694 21.513 5.7464 21.348C5.22515 21.1559 4.75359 20.8494 4.3664 20.451C3.96703 20.064 3.65948 19.5925 3.4664 19.071C3.3029 18.6495 3.1064 18.0135 3.0539 16.8435C2.9969 15.579 2.9849 15.1995 2.9849 11.994C2.9849 8.79 2.9969 8.412 3.0539 7.1475C3.1079 5.9775 3.3029 5.3415 3.4679 4.9185C3.6854 4.359 3.9464 3.9585 4.3664 3.5385C4.7864 3.1185 5.1854 2.859 5.7464 2.6415C6.1694 2.4765 6.8039 2.2815 7.9739 2.2275C9.0809 2.1765 9.5099 2.1615 11.7464 2.16V2.163ZM19.2284 4.155C19.0393 4.155 18.852 4.19225 18.6773 4.26461C18.5026 4.33698 18.3439 4.44305 18.2102 4.57677C18.0764 4.71048 17.9704 4.86923 17.898 5.04394C17.8256 5.21864 17.7884 5.4059 17.7884 5.595C17.7884 5.7841 17.8256 5.97135 17.898 6.14606C17.9704 6.32077 18.0764 6.47952 18.2102 6.61323C18.3439 6.74695 18.5026 6.85302 18.6773 6.92539C18.852 6.99775 19.0393 7.035 19.2284 7.035C19.6103 7.035 19.9766 6.88329 20.2466 6.61323C20.5167 6.34318 20.6684 5.97691 20.6684 5.595C20.6684 5.21309 20.5167 4.84682 20.2466 4.57677C19.9766 4.30671 19.6103 4.155 19.2284 4.155ZM12.8234 5.838C12.006 5.82525 11.1942 5.97523 10.4354 6.27921C9.67649 6.58319 8.98567 7.03511 8.40313 7.60864C7.82058 8.18216 7.35795 8.86585 7.04216 9.61989C6.72638 10.3739 6.56375 11.1833 6.56375 12.0007C6.56375 12.8182 6.72638 13.6276 7.04216 14.3816C7.35795 15.1356 7.82058 15.8193 8.40313 16.3929C8.98567 16.9664 9.67649 17.4183 10.4354 17.7223C11.1942 18.0263 12.006 18.1763 12.8234 18.1635C14.4412 18.1383 15.9842 17.4779 17.1194 16.3249C18.2545 15.1719 18.8907 13.6188 18.8907 12.0007C18.8907 10.3827 18.2545 8.82962 17.1194 7.67662C15.9842 6.52363 14.4412 5.86324 12.8234 5.838ZM12.8234 7.9995C13.8844 7.9995 14.9019 8.42098 15.6522 9.17122C16.4024 9.92146 16.8239 10.939 16.8239 12C16.8239 13.061 16.4024 14.0785 15.6522 14.8288C14.9019 15.579 13.8844 16.0005 12.8234 16.0005C11.7624 16.0005 10.7449 15.579 9.99462 14.8288C9.24438 14.0785 8.8229 13.061 8.8229 12C8.8229 10.939 9.24438 9.92146 9.99462 9.17122C10.7449 8.42098 11.7624 7.9995 12.8234 7.9995Z" fill="white"/>
</svg>
