<svg width="31" height="24" viewBox="0 0 31 24" fill="none" xmlns="http://www.w3.org/2000/svg">
<path d="M30.3671 2.84287C29.5444 4.06666 28.535 5.10988 27.339 5.97254C27.3508 6.2039 27.3567 6.46539 27.3567 6.75703C27.3567 8.37739 27.1204 9.99972 26.648 11.624C26.1755 13.2483 25.4538 14.803 24.4828 16.2882C23.5118 17.7734 22.3553 19.0892 21.013 20.2355C19.6708 21.3818 18.0574 22.2958 16.1728 22.9775C14.2882 23.6592 12.2684 24 10.1134 24C6.75022 24 3.65305 23.0921 0.821899 21.2762C1.32439 21.3321 1.80633 21.3601 2.26771 21.3601C5.07738 21.3601 7.58688 20.4946 9.79619 18.7638C8.48616 18.7398 7.31293 18.3365 6.27649 17.554C5.24006 16.7715 4.52682 15.7716 4.13675 14.5543C4.5223 14.6277 4.90283 14.6644 5.27834 14.6644C5.81885 14.6644 6.3507 14.5939 6.8739 14.453C5.47585 14.173 4.31606 13.4766 3.3945 12.364C2.47299 11.2514 2.01223 9.96719 2.01223 8.51145V8.43642C2.87035 8.91156 3.78568 9.16429 4.75821 9.19463C3.93002 8.6425 3.27338 7.92251 2.78831 7.03466C2.30321 6.1468 2.06066 5.18599 2.06066 4.15221C2.06066 3.06193 2.33387 2.04666 2.88028 1.10642C4.40063 2.97213 6.24285 4.46327 8.40695 5.57983C10.5711 6.6964 12.8928 7.31651 15.372 7.44016C15.2663 6.99947 15.2133 6.53959 15.2131 6.06052C15.2131 4.38779 15.8051 2.95952 16.989 1.77571C18.1729 0.591903 19.6012 0 21.274 0C23.0253 0 24.5004 0.637687 25.6994 1.91306C27.0692 1.64172 28.3519 1.15093 29.5474 0.440688C29.0868 1.89013 28.1993 3.00827 26.885 3.79512C28.093 3.65156 29.2537 3.33415 30.3671 2.84287H30.3671Z" fill="white"/>
</svg>
